# xmcd
# 
# Track frame offsets:
#     150
#     9107
#     25242
#     42150
#     60475
#     77292
#     93720
#     109120
#     118392
#     139537
#     151757
#     162050
#     179490
# 
# Disc length: 2640
# 
# Revision: 2
# Processed by: cddbd v1.5.2PL0 Copyright (c) Steve Scherf et al.
# Submitted via: fre:ac v1.0.31
# 
DISCID=940a4e0d
DTITLE=Sue Palmer - Boogie Woogie and Motel Swing
DYEAR=1999
DGENRE=Jazz
TTITLE0=Room Service Boogie
TTITLE1=Blue Motel
TTITLE2=Down the Road a Piece
TTITLE3=Blue and Tan
TTITLE4=Beehive
TTITLE5=Do Lord, Do Remember Me
TTITLE6=Black Beauty
TTITLE7=Sue's Boogie
TTITLE8=Just for a Thrill
TTITLE9=Swango
TTITLE10=HonkyTonk Train
TTITLE11=No Vacany
TTITLE12=After Hours
EXTD=\n\n
EXTT0=
EXTT1=
EXTT2=
EXTT3=
EXTT4=
EXTT5=
EXTT6=
EXTT7=
EXTT8=
EXTT9=
EXTT10=
EXTT11=
EXTT12=
PLAYORDER=
